<svg height="1146" width="656" xmlns:xlink="http://www.w3.org/1999/xlink" xmlns="http://www.w3.org/2000/svg" id="mscgen_js-svg-__svg" version="1.1"><desc id="mscgen_js-svg-__svg__msc_source">

# Generated by mscgen_js - http://sverweij.github.io/mscgen_js
hscale="2.0";

Alice, Bob;

--- : 1. Generate ephemeral keypairs;
Alice box Alice : Alice(eph) &lt;- generate keypair,
Bob box Bob : Bob(eph) &lt;- generate keypair;
|||;
--- : 2. Encrypt ephemeral keys with private keys;
Alice box Alice : Am1 &lt;- encrypt Alice(eph).pub to Bob from Alice,
Bob box Bob : Bm1 &lt;- encrypt Bob(eph).pub to Alice from Bob;
|||;
--- : 3. Exchange encrypted ephemeral keys;
Alice =&gt; Bob : Am1;
Bob =&gt; Alice : Bm1;
|||;
--- : 4. Generate symmetric key parts;
Alice box Alice : Ak &lt;- generate key,
Bob box Bob : Bk &lt;- generate key;
|||;
--- : 5. Encrypt key parts with ephemeral keys and exchange them;
Alice box Alice : Am2 &lt;- encrypt Ak to Bob(eph) from Alice(eph),
Bob box Bob : Bm2 &lt;- encrypt Bk to Alice(eph) from Bob(eph);
|||;
Alice =&gt; Bob : Am2;
Bob =&gt; Alice : Bm2;
|||;
--- : 6. Decrypt keyparts;
Alice box Alice : Bk &lt;- decrypt Bm2,
Bob box Bob : Ak &lt;- decrypt Am2;
|||;
--- : 7. Compute the symmetric key;
Alice box Alice : k &lt;- xor Ak Bk,
Bob box Bob : k &lt;- xor Ak Bk;
|||;
--- : 8. Erase ephemeral keys;
Alice box Alice : erase Alice(eph),
Bob box Bob : erase Bob(eph);
|||;
</desc><defs><style type="text/css">svg{  font-family:Helvetica,sans-serif;  font-size:9pt;  font-weight:normal;  font-style:normal;  text-decoration:none;  background-color:white;  stroke:black;  color:black;}rect{  fill:none;  stroke:black;  stroke-width:2;}.bglayer{  fill:white;  stroke:white;  stroke-width:0;}rect.textbg{  fill:white;  stroke:white;  stroke-width:0;  opacity:0.9;}line{  stroke:black;  stroke-width:2;}.arcrowomit{  stroke-dasharray:2,2;}text{  color:inherit;  stroke:none;  text-anchor:middle;}text.entity{  text-decoration:underline;}text.anchor-start{  text-anchor:start;}path{  stroke:black;  color:black;  stroke-width:2;  fill:none;}.dotted{  stroke-dasharray:5,2;}.striped{  stroke-dasharray:10,5;}.arrow-marker{  overflow:visible;}.arrow-style{  stroke:black;  stroke-dasharray:100,1; /* 'none' should work, but doesn't in webkit */  stroke-width:1;}.filled{  stroke:inherit;  fill:black; /* no-inherit */}.arcrowomit{  stroke-dasharray:2,2;}.box{  /* fill: #ffc;  no-inherit */  fill:white;  opacity:0.9;}.boxtext, .arctext{  font-size:0.8em;  text-anchor:middle;}.comment{  stroke-dasharray:5,2;} .mscgen_js-svg-__svgsignal{  marker-end:url(#mscgen_js-svg-__svgsignal);} .mscgen_js-svg-__svgsignal-u{  marker-end:url(#mscgen_js-svg-__svgsignal-u);} .mscgen_js-svg-__svgsignal-both{  marker-end:url(#mscgen_js-svg-__svgsignal);  marker-start:url(#mscgen_js-svg-__svgsignal-l);} .mscgen_js-svg-__svgsignal-both-u{  marker-end:url(#mscgen_js-svg-__svgsignal-u);  marker-start:url(#mscgen_js-svg-__svgsignal-lu);} .mscgen_js-svg-__svgsignal-both-self{  marker-end:url(#mscgen_js-svg-__svgsignal-u);  marker-start:url(#mscgen_js-svg-__svgsignal-l);} .mscgen_js-svg-__svgmethod{  marker-end:url(#mscgen_js-svg-__svgmethod);} .mscgen_js-svg-__svgmethod-both{  marker-end:url(#mscgen_js-svg-__svgmethod);  marker-start:url(#mscgen_js-svg-__svgmethod-l);} .mscgen_js-svg-__svgreturnvalue{  stroke-dasharray:5,2;  marker-end:url(#mscgen_js-svg-__svgcallback);} .mscgen_js-svg-__svgreturnvalue-both{  stroke-dasharray:5,2;  marker-end:url(#mscgen_js-svg-__svgcallback);  marker-start:url(#mscgen_js-svg-__svgcallback-l);}.mscgen_js-svg-__svgdotted{  stroke-dasharray:5,2;} .mscgen_js-svg-__svgcallback{  marker-end:url(#mscgen_js-svg-__svgcallback);} .mscgen_js-svg-__svgcallback-both{  marker-end:url(#mscgen_js-svg-__svgcallback);  marker-start:url(#mscgen_js-svg-__svgcallback-l);} .mscgen_js-svg-__svgemphasised{  marker-end:url(#mscgen_js-svg-__svgmethod);} .mscgen_js-svg-__svgemphasised-both{  marker-end:url(#mscgen_js-svg-__svgmethod);  marker-start:url(#mscgen_js-svg-__svgmethod-l);} .mscgen_js-svg-__svglost{  marker-end:url(#mscgen_js-svg-__svglost);} .inherit{  stroke:inherit;  color:inherit;} .inherit-fill{  fill:inherit;}.watermark{  stroke:black;  color:black;  fill:black;  font-size: 48pt;  font-weight:bold;  opacity:0.14;}</style><marker markerHeight="10" markerWidth="10" markerUnits="strokeWidth" refY="3" refX="9" viewBox="0 0 10 10" class="arrow-marker" id="mscgen_js-svg-__svgsignal" orient="auto"><path class="arrow-style" d="M 9 3 l -8 2"/></marker><marker markerHeight="10" markerWidth="10" markerUnits="strokeWidth" refY="3" refX="9" viewBox="0 0 10 10" class="arrow-marker" id="mscgen_js-svg-__svgsignal-u" orient="auto"><path class="arrow-style" d="M 9 3 l -8 -2"/></marker><marker markerHeight="10" markerWidth="10" markerUnits="strokeWidth" refY="3" refX="9" viewBox="0 0 10 10" class="arrow-marker" id="mscgen_js-svg-__svgsignal-l" orient="auto"><path class="arrow-style" d="M 9 3 l 8 2"/></marker><marker markerHeight="10" markerWidth="10" markerUnits="strokeWidth" refY="3" refX="9" viewBox="0 0 10 10" class="arrow-marker" id="mscgen_js-svg-__svgsignal-lu" orient="auto"><path class="arrow-style" d="M 9 3 l 8 -2"/></marker><marker markerHeight="10" markerWidth="10" markerUnits="strokeWidth" refY="3" refX="9" viewBox="0 0 10 10" class="arrow-marker" id="mscgen_js-svg-__svgmethod" orient="auto"><polygon class="filled arrow-style" points="1,1 9,3 1,5"/></marker><marker markerHeight="10" markerWidth="10" markerUnits="strokeWidth" refY="3" refX="9" viewBox="0 0 10 10" class="arrow-marker" id="mscgen_js-svg-__svgmethod-l" orient="auto"><polygon class="filled arrow-style" points="17,1 9,3 17,5"/></marker><marker markerHeight="10" markerWidth="10" markerUnits="strokeWidth" refY="3" refX="9" viewBox="0 0 10 10" class="arrow-marker" id="mscgen_js-svg-__svgcallback" orient="auto"><path class="arrow-style" d="M 1 1 l 8 2 l -8 2"/></marker><marker markerHeight="10" markerWidth="10" markerUnits="strokeWidth" refY="3" refX="9" viewBox="0 0 10 10" class="arrow-marker" id="mscgen_js-svg-__svgcallback-l" orient="auto"><path class="arrow-style" d="M 17 1 l -8 2 l 8 2"/></marker><marker markerHeight="10" markerWidth="10" markerUnits="strokeWidth" refY="3" refX="9" viewBox="0 0 10 10" class="arrow-marker" id="mscgen_js-svg-__svglost" orient="auto"><path class="arrow-style" d="M6.5,-0.5 L11.5,5.5 M6.5,5.5 L11.5,-0.5"/></marker><g id="mscgen_js-svg-__svg__defs"><g id="mscgen_js-svg-__svgAlice"><rect style="" height="38" width="200"/><g id="mscgen_js-svg-__svgAlice_txt"><rect class="textbg" y="9.5" x="86.5" height="18" width="27"/><text class="entity" y="23.5" x="100"><tspan>Alice</tspan></text></g></g><g id="mscgen_js-svg-__svgBob"><rect style="" height="38" width="200"/><g id="mscgen_js-svg-__svgBob_txt"><rect class="textbg" y="9.5" x="89" height="18" width="22"/><text class="entity" y="23.5" x="100"><tspan>Bob</tspan></text></g></g><g id="mscgen_js-svg-__svgarcrow"><line class="mscgen_js-svg-__svgarcrow" y2="19" x2="100" y1="-19" x1="100"/><line class="mscgen_js-svg-__svgarcrow" y2="19" x2="420" y1="-19" x1="420"/></g><g id="mscgen_js-svg-__svg0_0"><line class="dotted" y2="0" x2="520" y1="0" x1="0"/><g id="mscgen_js-svg-__svg0_0_txt"><g id="mscgen_js-svg-__svg0_0_txt_lbl"><rect class="textbg" y="-9.5" x="172.5" height="18" width="175"/><text y="4.5" x="260"><tspan>1. Generate ephemeral keypairs</tspan></text></g></g></g><g id="mscgen_js-svg-__svgarcrow_0"><line class="arcrow" y2="19" x2="100" y1="-19" x1="100"/><line class="arcrow" y2="19" x2="420" y1="-19" x1="420"/></g><g id="mscgen_js-svg-__svg1_0"><rect style="" class="box" y="-17" x="-58" height="34" width="316"/><g id="mscgen_js-svg-__svg1_0_txt"><rect class="textbg" y="-9.5" x="17.5" height="18" width="165"/><text y="4.5" x="100"><tspan>Alice(eph) &lt;- generate keypair</tspan></text></g></g><g id="mscgen_js-svg-__svg1_1"><rect style="" class="box" y="-17" x="262" height="34" width="316"/><g id="mscgen_js-svg-__svg1_1_txt"><rect class="textbg" y="-9.5" x="340" height="18" width="160"/><text y="4.5" x="420"><tspan>Bob(eph) &lt;- generate keypair</tspan></text></g></g><g id="mscgen_js-svg-__svgarcrow_1"><line class="arcrow" y2="19" x2="100" y1="-19" x1="100"/><line class="arcrow" y2="19" x2="420" y1="-19" x1="420"/></g><g id="mscgen_js-svg-__svg2_0"><g id="mscgen_js-svg-__svg2_0_lbl"/></g><g id="mscgen_js-svg-__svgarcrow_2"><line class="arcrow" y2="19" x2="100" y1="-19" x1="100"/><line class="arcrow" y2="19" x2="420" y1="-19" x1="420"/></g><g id="mscgen_js-svg-__svg3_0"><line class="dotted" y2="0" x2="520" y1="0" x1="0"/><g id="mscgen_js-svg-__svg3_0_txt"><g id="mscgen_js-svg-__svg3_0_txt_lbl"><rect class="textbg" y="-9.5" x="141.5" height="18" width="237"/><text y="4.5" x="260"><tspan>2. Encrypt ephemeral keys with private keys</tspan></text></g></g></g><g id="mscgen_js-svg-__svgarcrow_3"><line class="arcrow" y2="19" x2="100" y1="-19" x1="100"/><line class="arcrow" y2="19" x2="420" y1="-19" x1="420"/></g><g id="mscgen_js-svg-__svg4_0"><rect style="" class="box" y="-17" x="-58" height="34" width="316"/><g id="mscgen_js-svg-__svg4_0_txt"><rect class="textbg" y="-9.5" x="-30" height="18" width="260"/><text y="4.5" x="100"><tspan>Am1 &lt;- encrypt Alice(eph).pub to Bob from Alice</tspan></text></g></g><g id="mscgen_js-svg-__svg4_1"><rect style="" class="box" y="-17" x="262" height="34" width="316"/><g id="mscgen_js-svg-__svg4_1_txt"><rect class="textbg" y="-9.5" x="292.5" height="18" width="255"/><text y="4.5" x="420"><tspan>Bm1 &lt;- encrypt Bob(eph).pub to Alice from Bob</tspan></text></g></g><g id="mscgen_js-svg-__svgarcrow_4"><line class="arcrow" y2="19" x2="100" y1="-19" x1="100"/><line class="arcrow" y2="19" x2="420" y1="-19" x1="420"/></g><g id="mscgen_js-svg-__svg5_0"><g id="mscgen_js-svg-__svg5_0_lbl"/></g><g id="mscgen_js-svg-__svgarcrow_5"><line class="arcrow" y2="19" x2="100" y1="-19" x1="100"/><line class="arcrow" y2="19" x2="420" y1="-19" x1="420"/></g><g id="mscgen_js-svg-__svg6_0"><line class="dotted" y2="0" x2="520" y1="0" x1="0"/><g id="mscgen_js-svg-__svg6_0_txt"><g id="mscgen_js-svg-__svg6_0_txt_lbl"><rect class="textbg" y="-9.5" x="152.5" height="18" width="215"/><text y="4.5" x="260"><tspan>3. Exchange encrypted ephemeral keys</tspan></text></g></g></g><g id="mscgen_js-svg-__svgarcrow_6"><line class="arcrow" y2="19" x2="100" y1="-19" x1="100"/><line class="arcrow" y2="19" x2="420" y1="-19" x1="420"/></g><g id="mscgen_js-svg-__svg7_0"><line class="mscgen_js-svg-__svgmethod" y2="0" x2="420" y1="0" x1="100"/><g id="mscgen_js-svg-__svg7_0_txt"><rect class="textbg" y="-19" x="247.5" height="18" width="25"/><text y="-5" x="260"><tspan>Am1</tspan></text><rect class="textbg" height="0" width="0"/><text y="14" x="260"><tspan/></text></g></g><g id="mscgen_js-svg-__svgarcrow_7"><line class="arcrow" y2="19" x2="100" y1="-19" x1="100"/><line class="arcrow" y2="19" x2="420" y1="-19" x1="420"/></g><g id="mscgen_js-svg-__svg8_0"><line class="mscgen_js-svg-__svgmethod" y2="0" x2="100" y1="0" x1="420"/><g id="mscgen_js-svg-__svg8_0_txt"><rect class="textbg" y="-19" x="247.5" height="18" width="25"/><text y="-5" x="260"><tspan>Bm1</tspan></text><rect class="textbg" height="0" width="0"/><text y="14" x="260"><tspan/></text></g></g><g id="mscgen_js-svg-__svgarcrow_8"><line class="arcrow" y2="19" x2="100" y1="-19" x1="100"/><line class="arcrow" y2="19" x2="420" y1="-19" x1="420"/></g><g id="mscgen_js-svg-__svg9_0"><g id="mscgen_js-svg-__svg9_0_lbl"/></g><g id="mscgen_js-svg-__svgarcrow_9"><line class="arcrow" y2="19" x2="100" y1="-19" x1="100"/><line class="arcrow" y2="19" x2="420" y1="-19" x1="420"/></g><g id="mscgen_js-svg-__svg10_0"><line class="dotted" y2="0" x2="520" y1="0" x1="0"/><g id="mscgen_js-svg-__svg10_0_txt"><g id="mscgen_js-svg-__svg10_0_txt_lbl"><rect class="textbg" y="-9.5" x="173" height="18" width="174"/><text y="4.5" x="260"><tspan>4. Generate symmetric key parts</tspan></text></g></g></g><g id="mscgen_js-svg-__svgarcrow_10"><line class="arcrow" y2="19" x2="100" y1="-19" x1="100"/><line class="arcrow" y2="19" x2="420" y1="-19" x1="420"/></g><g id="mscgen_js-svg-__svg11_0"><rect style="" class="box" y="-17" x="-58" height="34" width="316"/><g id="mscgen_js-svg-__svg11_0_txt"><rect class="textbg" y="-9.5" x="49" height="18" width="102"/><text y="4.5" x="100"><tspan>Ak &lt;- generate key</tspan></text></g></g><g id="mscgen_js-svg-__svg11_1"><rect style="" class="box" y="-17" x="262" height="34" width="316"/><g id="mscgen_js-svg-__svg11_1_txt"><rect class="textbg" y="-9.5" x="369" height="18" width="102"/><text y="4.5" x="420"><tspan>Bk &lt;- generate key</tspan></text></g></g><g id="mscgen_js-svg-__svgarcrow_11"><line class="arcrow" y2="19" x2="100" y1="-19" x1="100"/><line class="arcrow" y2="19" x2="420" y1="-19" x1="420"/></g><g id="mscgen_js-svg-__svg12_0"><g id="mscgen_js-svg-__svg12_0_lbl"/></g><g id="mscgen_js-svg-__svgarcrow_12"><line class="arcrow" y2="19" x2="100" y1="-19" x1="100"/><line class="arcrow" y2="19" x2="420" y1="-19" x1="420"/></g><g id="mscgen_js-svg-__svg13_0"><line class="dotted" y2="0" x2="520" y1="0" x1="0"/><g id="mscgen_js-svg-__svg13_0_txt"><g id="mscgen_js-svg-__svg13_0_txt_lbl"><rect class="textbg" y="-9.5" x="94" height="18" width="332"/><text y="4.5" x="260"><tspan>5. Encrypt key parts with ephemeral keys and exchange them</tspan></text></g></g></g><g id="mscgen_js-svg-__svgarcrow_13"><line class="arcrow" y2="19" x2="100" y1="-19" x1="100"/><line class="arcrow" y2="19" x2="420" y1="-19" x1="420"/></g><g id="mscgen_js-svg-__svg14_0"><rect style="" class="box" y="-17" x="-58" height="34" width="316"/><g id="mscgen_js-svg-__svg14_0_txt"><rect class="textbg" y="-9.5" x="-26" height="18" width="252"/><text y="4.5" x="100"><tspan>Am2 &lt;- encrypt Ak to Bob(eph) from Alice(eph)</tspan></text></g></g><g id="mscgen_js-svg-__svg14_1"><rect style="" class="box" y="-17" x="262" height="34" width="316"/><g id="mscgen_js-svg-__svg14_1_txt"><rect class="textbg" y="-9.5" x="294" height="18" width="252"/><text y="4.5" x="420"><tspan>Bm2 &lt;- encrypt Bk to Alice(eph) from Bob(eph)</tspan></text></g></g><g id="mscgen_js-svg-__svgarcrow_14"><line class="arcrow" y2="19" x2="100" y1="-19" x1="100"/><line class="arcrow" y2="19" x2="420" y1="-19" x1="420"/></g><g id="mscgen_js-svg-__svg15_0"><g id="mscgen_js-svg-__svg15_0_lbl"/></g><g id="mscgen_js-svg-__svgarcrow_15"><line class="arcrow" y2="19" x2="100" y1="-19" x1="100"/><line class="arcrow" y2="19" x2="420" y1="-19" x1="420"/></g><g id="mscgen_js-svg-__svg16_0"><line class="mscgen_js-svg-__svgmethod" y2="0" x2="420" y1="0" x1="100"/><g id="mscgen_js-svg-__svg16_0_txt"><rect class="textbg" y="-19" x="247.5" height="18" width="25"/><text y="-5" x="260"><tspan>Am2</tspan></text><rect class="textbg" height="0" width="0"/><text y="14" x="260"><tspan/></text></g></g><g id="mscgen_js-svg-__svgarcrow_16"><line class="arcrow" y2="19" x2="100" y1="-19" x1="100"/><line class="arcrow" y2="19" x2="420" y1="-19" x1="420"/></g><g id="mscgen_js-svg-__svg17_0"><line class="mscgen_js-svg-__svgmethod" y2="0" x2="100" y1="0" x1="420"/><g id="mscgen_js-svg-__svg17_0_txt"><rect class="textbg" y="-19" x="247.5" height="18" width="25"/><text y="-5" x="260"><tspan>Bm2</tspan></text><rect class="textbg" height="0" width="0"/><text y="14" x="260"><tspan/></text></g></g><g id="mscgen_js-svg-__svgarcrow_17"><line class="arcrow" y2="19" x2="100" y1="-19" x1="100"/><line class="arcrow" y2="19" x2="420" y1="-19" x1="420"/></g><g id="mscgen_js-svg-__svg18_0"><g id="mscgen_js-svg-__svg18_0_lbl"/></g><g id="mscgen_js-svg-__svgarcrow_18"><line class="arcrow" y2="19" x2="100" y1="-19" x1="100"/><line class="arcrow" y2="19" x2="420" y1="-19" x1="420"/></g><g id="mscgen_js-svg-__svg19_0"><line class="dotted" y2="0" x2="520" y1="0" x1="0"/><g id="mscgen_js-svg-__svg19_0_txt"><g id="mscgen_js-svg-__svg19_0_txt_lbl"><rect class="textbg" y="-9.5" x="208" height="18" width="104"/><text y="4.5" x="260"><tspan>6. Decrypt keyparts</tspan></text></g></g></g><g id="mscgen_js-svg-__svgarcrow_19"><line class="arcrow" y2="19" x2="100" y1="-19" x1="100"/><line class="arcrow" y2="19" x2="420" y1="-19" x1="420"/></g><g id="mscgen_js-svg-__svg20_0"><rect style="" class="box" y="-17" x="-58" height="34" width="316"/><g id="mscgen_js-svg-__svg20_0_txt"><rect class="textbg" y="-9.5" x="50.5" height="18" width="99"/><text y="4.5" x="100"><tspan>Bk &lt;- decrypt Bm2</tspan></text></g></g><g id="mscgen_js-svg-__svg20_1"><rect style="" class="box" y="-17" x="262" height="34" width="316"/><g id="mscgen_js-svg-__svg20_1_txt"><rect class="textbg" y="-9.5" x="370.5" height="18" width="99"/><text y="4.5" x="420"><tspan>Ak &lt;- decrypt Am2</tspan></text></g></g><g id="mscgen_js-svg-__svgarcrow_20"><line class="arcrow" y2="19" x2="100" y1="-19" x1="100"/><line class="arcrow" y2="19" x2="420" y1="-19" x1="420"/></g><g id="mscgen_js-svg-__svg21_0"><g id="mscgen_js-svg-__svg21_0_lbl"/></g><g id="mscgen_js-svg-__svgarcrow_21"><line class="arcrow" y2="19" x2="100" y1="-19" x1="100"/><line class="arcrow" y2="19" x2="420" y1="-19" x1="420"/></g><g id="mscgen_js-svg-__svg22_0"><line class="dotted" y2="0" x2="520" y1="0" x1="0"/><g id="mscgen_js-svg-__svg22_0_txt"><g id="mscgen_js-svg-__svg22_0_txt_lbl"><rect class="textbg" y="-9.5" x="178.5" height="18" width="163"/><text y="4.5" x="260"><tspan>7. Compute the symmetric key</tspan></text></g></g></g><g id="mscgen_js-svg-__svgarcrow_22"><line class="arcrow" y2="19" x2="100" y1="-19" x1="100"/><line class="arcrow" y2="19" x2="420" y1="-19" x1="420"/></g><g id="mscgen_js-svg-__svg23_0"><rect style="" class="box" y="-17" x="-58" height="34" width="316"/><g id="mscgen_js-svg-__svg23_0_txt"><rect class="textbg" y="-9.5" x="63" height="18" width="74"/><text y="4.5" x="100"><tspan>k &lt;- xor Ak Bk</tspan></text></g></g><g id="mscgen_js-svg-__svg23_1"><rect style="" class="box" y="-17" x="262" height="34" width="316"/><g id="mscgen_js-svg-__svg23_1_txt"><rect class="textbg" y="-9.5" x="383" height="18" width="74"/><text y="4.5" x="420"><tspan>k &lt;- xor Ak Bk</tspan></text></g></g><g id="mscgen_js-svg-__svgarcrow_23"><line class="arcrow" y2="19" x2="100" y1="-19" x1="100"/><line class="arcrow" y2="19" x2="420" y1="-19" x1="420"/></g><g id="mscgen_js-svg-__svg24_0"><g id="mscgen_js-svg-__svg24_0_lbl"/></g><g id="mscgen_js-svg-__svgarcrow_24"><line class="arcrow" y2="19" x2="100" y1="-19" x1="100"/><line class="arcrow" y2="19" x2="420" y1="-19" x1="420"/></g><g id="mscgen_js-svg-__svg25_0"><line class="dotted" y2="0" x2="520" y1="0" x1="0"/><g id="mscgen_js-svg-__svg25_0_txt"><g id="mscgen_js-svg-__svg25_0_txt_lbl"><rect class="textbg" y="-9.5" x="192.5" height="18" width="135"/><text y="4.5" x="260"><tspan>8. Erase ephemeral keys</tspan></text></g></g></g><g id="mscgen_js-svg-__svgarcrow_25"><line class="arcrow" y2="19" x2="100" y1="-19" x1="100"/><line class="arcrow" y2="19" x2="420" y1="-19" x1="420"/></g><g id="mscgen_js-svg-__svg26_0"><rect style="" class="box" y="-17" x="-58" height="34" width="316"/><g id="mscgen_js-svg-__svg26_0_txt"><rect class="textbg" y="-9.5" x="55" height="18" width="90"/><text y="4.5" x="100"><tspan>erase Alice(eph)</tspan></text></g></g><g id="mscgen_js-svg-__svg26_1"><rect style="" class="box" y="-17" x="262" height="34" width="316"/><g id="mscgen_js-svg-__svg26_1_txt"><rect class="textbg" y="-9.5" x="377.5" height="18" width="85"/><text y="4.5" x="420"><tspan>erase Bob(eph)</tspan></text></g></g><g id="mscgen_js-svg-__svgarcrow_26"><line class="arcrow" y2="19" x2="100" y1="-19" x1="100"/><line class="arcrow" y2="19" x2="420" y1="-19" x1="420"/></g><g id="mscgen_js-svg-__svg27_0"><g id="mscgen_js-svg-__svg27_0_lbl"/></g><g id="mscgen_js-svg-__svgarcrow_27"><line class="arcrow" y2="19" x2="100" y1="-19" x1="100"/><line class="arcrow" y2="19" x2="420" y1="-19" x1="420"/></g></g></defs><g transform="translate(68,3) scale(1,1)" id="mscgen_js-svg-__svg__body"><g id="mscgen_js-svg-__svg__background"><rect class="bglayer" y="-3" x="-68" height="1146" width="656"/></g><g id="mscgen_js-svg-__svg__arcspanlayer"/><g id="mscgen_js-svg-__svg__lifelinelayer"><use xlink:href="#mscgen_js-svg-__svgarcrow" y="57" x="0"/><use xlink:href="#mscgen_js-svg-__svgarcrow_0" y="95" x="0"/><use xlink:href="#mscgen_js-svg-__svgarcrow_1" y="133" x="0"/><use xlink:href="#mscgen_js-svg-__svgarcrow_2" y="171" x="0"/><use xlink:href="#mscgen_js-svg-__svgarcrow_3" y="209" x="0"/><use xlink:href="#mscgen_js-svg-__svgarcrow_4" y="247" x="0"/><use xlink:href="#mscgen_js-svg-__svgarcrow_5" y="285" x="0"/><use xlink:href="#mscgen_js-svg-__svgarcrow_6" y="323" x="0"/><use xlink:href="#mscgen_js-svg-__svgarcrow_7" y="361" x="0"/><use xlink:href="#mscgen_js-svg-__svgarcrow_8" y="399" x="0"/><use xlink:href="#mscgen_js-svg-__svgarcrow_9" y="437" x="0"/><use xlink:href="#mscgen_js-svg-__svgarcrow_10" y="475" x="0"/><use xlink:href="#mscgen_js-svg-__svgarcrow_11" y="513" x="0"/><use xlink:href="#mscgen_js-svg-__svgarcrow_12" y="551" x="0"/><use xlink:href="#mscgen_js-svg-__svgarcrow_13" y="589" x="0"/><use xlink:href="#mscgen_js-svg-__svgarcrow_14" y="627" x="0"/><use xlink:href="#mscgen_js-svg-__svgarcrow_15" y="665" x="0"/><use xlink:href="#mscgen_js-svg-__svgarcrow_16" y="703" x="0"/><use xlink:href="#mscgen_js-svg-__svgarcrow_17" y="741" x="0"/><use xlink:href="#mscgen_js-svg-__svgarcrow_18" y="779" x="0"/><use xlink:href="#mscgen_js-svg-__svgarcrow_19" y="817" x="0"/><use xlink:href="#mscgen_js-svg-__svgarcrow_20" y="855" x="0"/><use xlink:href="#mscgen_js-svg-__svgarcrow_21" y="893" x="0"/><use xlink:href="#mscgen_js-svg-__svgarcrow_22" y="931" x="0"/><use xlink:href="#mscgen_js-svg-__svgarcrow_23" y="969" x="0"/><use xlink:href="#mscgen_js-svg-__svgarcrow_24" y="1007" x="0"/><use xlink:href="#mscgen_js-svg-__svgarcrow_25" y="1045" x="0"/><use xlink:href="#mscgen_js-svg-__svgarcrow_26" y="1083" x="0"/><use xlink:href="#mscgen_js-svg-__svgarcrow_27" y="1121" x="0"/></g><g id="mscgen_js-svg-__svg__sequencelayer"><use xlink:href="#mscgen_js-svg-__svgAlice" y="0" x="0"/><use xlink:href="#mscgen_js-svg-__svgBob" y="0" x="320"/><use xlink:href="#mscgen_js-svg-__svg0_0" y="95" x="0"/><use xlink:href="#mscgen_js-svg-__svg2_0" y="171" x="0"/><use xlink:href="#mscgen_js-svg-__svg3_0" y="209" x="0"/><use xlink:href="#mscgen_js-svg-__svg5_0" y="285" x="0"/><use xlink:href="#mscgen_js-svg-__svg6_0" y="323" x="0"/><use xlink:href="#mscgen_js-svg-__svg7_0" y="361" x="0"/><use xlink:href="#mscgen_js-svg-__svg8_0" y="399" x="0"/><use xlink:href="#mscgen_js-svg-__svg9_0" y="437" x="0"/><use xlink:href="#mscgen_js-svg-__svg10_0" y="475" x="0"/><use xlink:href="#mscgen_js-svg-__svg12_0" y="551" x="0"/><use xlink:href="#mscgen_js-svg-__svg13_0" y="589" x="0"/><use xlink:href="#mscgen_js-svg-__svg15_0" y="665" x="0"/><use xlink:href="#mscgen_js-svg-__svg16_0" y="703" x="0"/><use xlink:href="#mscgen_js-svg-__svg17_0" y="741" x="0"/><use xlink:href="#mscgen_js-svg-__svg18_0" y="779" x="0"/><use xlink:href="#mscgen_js-svg-__svg19_0" y="817" x="0"/><use xlink:href="#mscgen_js-svg-__svg21_0" y="893" x="0"/><use xlink:href="#mscgen_js-svg-__svg22_0" y="931" x="0"/><use xlink:href="#mscgen_js-svg-__svg24_0" y="1007" x="0"/><use xlink:href="#mscgen_js-svg-__svg25_0" y="1045" x="0"/><use xlink:href="#mscgen_js-svg-__svg27_0" y="1121" x="0"/></g><g id="mscgen_js-svg-__svg__notelayer"><use xlink:href="#mscgen_js-svg-__svg1_0" y="133" x="0"/><use xlink:href="#mscgen_js-svg-__svg1_1" y="133" x="0"/><use xlink:href="#mscgen_js-svg-__svg4_0" y="247" x="0"/><use xlink:href="#mscgen_js-svg-__svg4_1" y="247" x="0"/><use xlink:href="#mscgen_js-svg-__svg11_0" y="513" x="0"/><use xlink:href="#mscgen_js-svg-__svg11_1" y="513" x="0"/><use xlink:href="#mscgen_js-svg-__svg14_0" y="627" x="0"/><use xlink:href="#mscgen_js-svg-__svg14_1" y="627" x="0"/><use xlink:href="#mscgen_js-svg-__svg20_0" y="855" x="0"/><use xlink:href="#mscgen_js-svg-__svg20_1" y="855" x="0"/><use xlink:href="#mscgen_js-svg-__svg23_0" y="969" x="0"/><use xlink:href="#mscgen_js-svg-__svg23_1" y="969" x="0"/><use xlink:href="#mscgen_js-svg-__svg26_0" y="1083" x="0"/><use xlink:href="#mscgen_js-svg-__svg26_1" y="1083" x="0"/></g><g id="mscgen_js-svg-__svg__watermark"/></g></svg>